<svg id="Layer_1" data-name="Layer 1" xmlns="http://www.w3.org/2000/svg" viewBox="0 0 188.9 38.3"><defs><style>.cls-1{isolation:isolate;font-size:31.61px;font-family:GabrielaAlt-Medium, Gabriela Alt;font-weight:500;}.cls-1,.cls-3{fill:#482f1d;}.cls-2{letter-spacing:-0.01em;}</style></defs><title>logo1</title><text class="cls-1" transform="translate(13.5 26.6)">ngan<tspan class="cls-2" x="76.6" y="0">t</tspan><tspan x="88.3" y="0">enan</tspan></text><path class="cls-3" d="M363.8,410.1a8.2,8.2,0,0,1,1.9-7.5C366.5,404.6,365.3,408.6,363.8,410.1Zm1.7-6.7a8.4,8.4,0,0,0-1.5,6A9.8,9.8,0,0,0,365.5,403.4Z" transform="translate(-180.2 -393.2)"/><path class="cls-3" d="M364.2,413.5a2.6,2.6,0,1,1-2.7-2.7A2.6,2.6,0,0,1,364.2,413.5Z" transform="translate(-180.2 -393.2)"/><path class="cls-3" d="M364.9,410.2a5.7,5.7,0,0,1,3.5-2.2c.2,0,.5-.2.6,0s-.1.3-.3.5a6.1,6.1,0,0,1-3.5,2.1h-.4C364.7,410.4,364.9,410.3,364.9,410.2Zm.6-.1a4.2,4.2,0,0,0,2.8-1.7A4.4,4.4,0,0,0,365.5,410.1Z" transform="translate(-180.2 -393.2)"/><path class="cls-3" d="M185.4,410.1a8.2,8.2,0,0,0-1.9-7.5C182.8,404.6,184,408.6,185.4,410.1Zm-1.6-6.7a8.4,8.4,0,0,1,1.5,6A8.6,8.6,0,0,1,183.8,403.4Z" transform="translate(-180.2 -393.2)"/><path class="cls-3" d="M185,413.5a2.6,2.6,0,1,0,2.7-2.7A2.7,2.7,0,0,0,185,413.5Z" transform="translate(-180.2 -393.2)"/><path class="cls-3" d="M184.3,410.2a5.7,5.7,0,0,0-3.5-2.2c-.2,0-.5-.2-.6,0s.1.3.3.5a6.1,6.1,0,0,0,3.5,2.1h.4C184.6,410.4,184.4,410.3,184.3,410.2Zm-.5-.1a4.2,4.2,0,0,1-2.8-1.7A4.4,4.4,0,0,1,183.8,410.1Z" transform="translate(-180.2 -393.2)"/></svg>